#!OML:ASF I:\Actors\actors\Patient Classification 2\Patient 1\Session 1\actor1.ASF
:FULLY-SPECIFIED
:DEGREES
324
root -0.663443 18.6405 6.14658 0.725379 -3.95149 -3.01641
lowerback 1.18077 0.557255 2.64658
upperback -1.26721 0.815509 0.959803
thorax -1.93885 0.376665 -0.521659
lowerneck -12.8576 -2.47272 -2.65937
upperneck 21.0324 -3.74624 3.86983
head 8.81608 -1.57373 1.32862
rclavicle 3.35061e-016 -5.75233e-015
rhumerus -54.531 -17.1214 -74.4967
rradius 49.8619
rwrist 1.88064
rhand -6.9095 -36.0974
rfingers 7.12502
rthumb 18.9579 -65.1935
lclavicle 3.35061e-016 -5.75233e-015
lhumerus -46.1327 4.88958 88.3162
lradius 42.2736
lwrist 7.57199
lhand -22.5154 -29.1168
lfingers 7.12502
lthumb 3.91105 0.827064
rfemur 0 0 0
rtibia 0
rfoot 0 0
rtoes 0
lfemur -1.88997 -6.38608 -12.0798
ltibia 21.9362
lfoot -25.0505 14.6808
ltoes -54.9701
325
root -0.665042 18.6408 6.14676 0.733502 -3.94226 -3.02935
lowerback 1.23327 0.528175 2.6798
upperback -1.22274 0.777785 0.930736
thorax -1.92293 0.357661 -0.569324
lowerneck -12.9689 -2.46611 -2.62966
upperneck 21.0368 -3.7445 3.88156
head 8.83784 -1.56786 1.32674
rclavicle -5.7304e-015 -1.44429e-014
rhumerus -55.0516 -17.9027 -74.4355
rradius 48.6551
rwrist 2.05242
rhand -7.54382 -36.1067
rfingers 7.12502
rthumb 18.3477 -65.2614
lclavicle -5.7304e-015 -1.44429e-014
lhumerus -46.4288 6.78588 87.3997
lradius 41.4929
lwrist 7.31946
lhand -22.9045 -28.9361
lfingers 7.12502
lthumb 3.53536 1.01431
rfemur 0 0 0
rtibia 0
rfoot 0 0
rtoes 0
lfemur -1.88869 -6.48842 -12.0741
ltibia 21.9269
lfoot -25.1222 14.7346
ltoes -54.9087
326
root -0.667111 18.64 6.14745 0.723405 -3.95476 -3.05761
lowerback 1.34983 0.518392 2.73127
upperback -1.21605 0.76945 0.899304
thorax -1.98078 0.351917 -0.631305
lowerneck -12.9502 -2.41666 -2.6192
upperneck 21.0042 -3.69381 3.95555
head 8.82262 -1.53599 1.35608
rclavicle 1.62299e-015 3.00972e-015
rhumerus -55.5608 -18.4447 -74.4406
rradius 47.5401
rwrist 2.26844
rhand -7.965 -36.0094
rfingers 7.12502
rthumb 17.9425 -65.2018
lclavicle 1.62299e-015 3.00972e-015
lhumerus -46.747 8.68289 86.4055
lradius 40.7802
lwrist 6.94527
lhand -23.1397 -28.9033
lfingers 7.12502
lthumb 3.30824 1.05076
rfemur 0 0 0
rtibia 0
rfoot 0 0
rtoes 0
lfemur -1.86679 -6.52097 -12.0403
ltibia 21.9231
lfoot -25.211 14.7044
ltoes -54.7953
327
root -0.670333 18.6394 6.14695 0.687615 -3.98867 -3.12118
lowerback 1.51416 0.532314 2.77629
upperback -1.2178 0.795175 0.894905
thorax -2.07358 0.362945 -0.663557
lowerneck -12.7831 -2.37119 -2.59772
upperneck 20.9025 -3.63699 3.96903
head 8.75468 -1.50925 1.36485
rclavicle -2.14917e-015 -1.19271e-015
rhumerus -56.0154 -18.646 -74.6071
rradius 46.5643
rwrist 2.11889
rhand -8.74526 -35.9617
rfingers 7.12502
rthumb 17.1916 -65.2211
lclavicle -2.14917e-015 -1.19271e-015
lhumerus -47.095 10.3097 85.4748
lradius 40.1824
lwrist 6.53113
lhand -23.0242 -28.7853
lfingers 7.12502
lthumb 3.41973 1.16702
rfemur 0 0 0
rtibia 0
rfoot 0 0
rtoes 0
lfemur -1.81353 -6.52361 -11.966
ltibia 21.9255
lfoot -25.2443 14.6852
ltoes -54.7309
328
root -0.673226 18.6397 6.14558 0.666763 -4.00709 -3.2043
lowerback 1.68197 0.555103 2.79276
upperback -1.23613 0.833271 0.920332
thorax -2.18578 0.380395 -0.649917
lowerneck -12.6482 -2.38703 -2.61342
upperneck 20.8533 -3.64773 3.93302
head 8.71293 -1.52145 1.35515
rclavicle -9.18719e-015 -1.62382e-014
rhumerus -56.4025 -18.5219 -74.9089
rradius 45.7983
rwrist 2.01539
rhand -9.1907 -36.2025
rfingers 7.12502
rthumb 16.7629 -65.4989
lclavicle -9.18719e-015 -1.62382e-014
lhumerus -47.4938 11.2421 84.8774
lradius 39.9208
lwrist 6.37569
lhand -22.6933 -28.3792
lfingers 7.12502
lthumb 3.73927 1.56778
rfemur 0 0 0
rtibia 0
rfoot 0 0
rtoes 0
lfemur -1.78774 -6.50413 -11.8643
ltibia 21.9358
lfoot -25.2264 14.6744
ltoes -54.7066
329
root -0.67434 18.6395 6.14682 0.633313 -4.06518 -3.24245
lowerback 1.79592 0.587644 2.74128
upperback -1.22839 0.880201 0.960156
thorax -2.24176 0.404314 -0.583205
lowerneck -12.5954 -2.39897 -2.68476
upperneck 20.838 -3.64718 3.92585
head 8.69915 -1.52832 1.36518
rclavicle 4.8279e-015 -2.12451e-015
rhumerus -56.6027 -18.3233 -75.1927
rradius 45.035
rwrist 2.45021
rhand -9.0971 -36.3137
rfingers 7.12502
rthumb 16.853 -65.6024
lclavicle 4.8279e-015 -2.12451e-015
lhumerus -47.8344 11.5453 84.6381
lradius 39.8976
lwrist 6.34998
lhand -22.341 -27.9363
lfingers 7.12502
lthumb 4.07952 2.00438
rfemur 0 0 0
rtibia 0
rfoot 0 0
rtoes 0
lfemur -1.73198 -6.57374 -11.8445
ltibia 21.9515
lfoot -25.2847 14.8031
ltoes -54.7081
330
root -0.674985 18.6382 6.15024 0.593978 -4.15796 -3.2663
lowerback 1.81233 0.647537 2.69064
upperback -1.17131 0.958498 0.989921
thorax -2.1912 0.445425 -0.526996
lowerneck -12.5328 -2.3999 -2.69331
upperneck 20.7402 -3.63709 3.89736
head 8.65354 -1.52868 1.35842
rclavicle -1.0739e-015 -3.24267e-015
rhumerus -56.6698 -18.11 -75.5012
rradius 44.3082
rwrist 2.94139
rhand -9.18103 -36.0174
rfingers 7.12502
rthumb 16.7722 -65.313
lclavicle -1.0739e-015 -3.24267e-015
lhumerus -47.9996 11.4126 84.5907
lradius 39.854
lwrist 6.15141
lhand -21.8208 -27.7334
lfingers 7.12502
lthumb 4.5818 2.19705
rfemur 0 0 0
rtibia 0
rfoot 0 0
rtoes 0
lfemur -1.63837 -6.8031 -11.8805
ltibia 21.9586
lfoot -25.4716 15.077
ltoes -54.7155
331
root -0.675982 18.6378 6.15241 0.599848 -4.19821 -3.30574
lowerback 1.7813 0.715494 2.69437
upperback -1.11614 1.04671 0.989527
thorax -2.11442 0.490699 -0.531764
lowerneck -12.4576 -2.43908 -2.63959
upperneck 20.6166 -3.68672 3.84043
head 8.59743 -1.55556 1.32497
rclavicle -2.28307e-014 -7.54139e-015
rhumerus -56.6941 -17.7982 -75.9345
rradius 43.7949
rwrist 3.32526
rhand -9.3476 -35.6526
rfingers 7.12502
rthumb 16.6118 -64.9617
lclavicle -2.28307e-014 -7.54139e-015
lhumerus -48.0127 10.9358 84.6377
lradius 39.7861
lwrist 5.69192
lhand -21.0059 -27.6228
lfingers 7.12502
lthumb 5.36864 2.28917
rfemur 0 0 0
rtibia 0
rfoot 0 0
rtoes 0
lfemur -1.60346 -7.02806 -11.8823
ltibia 21.9534
lfoot -25.6397 15.2602
ltoes -54.6921
332
root -0.677731 18.6382 6.15182 0.643771 -4.18237 -3.33135
lowerback 1.71848 0.758459 2.67526
upperback -1.06192 1.09978 0.985622
thorax -2.0221 0.518915 -0.525519
lowerneck -12.3892 -2.49801 -2.61522
upperneck 20.5071 -3.75694 3.77903
head 8.54861 -1.59474 1.29272
rclavicle -4.12206e-015 8.69683e-016
rhumerus -56.629 -17.327 -76.493
rradius 43.456
rwrist 3.57269
rhand -9.77043 -35.3269
rfingers 7.12502
rthumb 16.2047 -64.6696
lclavicle -4.12206e-015 8.69683e-016
lhumerus -47.9145 10.3262 84.7363
lradius 39.7496
lwrist 4.94421
lhand -19.9225 -27.4508
lfingers 7.12502
lthumb 6.41466 2.4321
rfemur 0 0 0
rtibia 0
rfoot 0 0
rtoes 0
lfemur -1.65677 -7.03792 -11.8361
ltibia 21.95
lfoot -25.6382 15.2059
ltoes -54.6651
